<?xml version="1.0" encoding="utf-8"?>
<svg xmlns="http://www.w3.org/2000/svg" viewBox="113.9557 0.0037 271.9725 265.5547" width="271.973px" height="265.555px" preserveAspectRatio="none"><defs><clipPath id="clippath"><rect class="cls-7" x="79.11" y="31.56" width="272.04" height="265.55" style="fill: none;"/></clipPath><clipPath id="clippath-1"><rect class="cls-7" x="79.11" y="31.56" width="272.04" height="265.55" style="fill: none;"/></clipPath></defs><g id="Camada_1" transform="matrix(0.9999999999999999, 0, 0, 0.9999999999999999, 27.6521053314209, -66.90773773193361)"><g id="Arte_1" transform="matrix(1, 0, 0, 1, 7.1149, 35.396076)"><g class="cls-10" style="clip-path: url(&quot;#clippath&quot;);"><g class="cls-8" style="clip-path: url(&quot;#clippath-1&quot;);"><path class="cls-5" d="M188.52,287.37l-95.32-95.33c-15.14-16.74-17.1-33.04.04-51.18l98.85-98.85c12.96-10.26,35.17-12.22,51.22-.03l95.35,95.35c13.74,17.17,14.23,34.26.05,51.29l-98.84,98.85c-14.97,10.73-37.49,9.66-51.33-.1" style="fill: rgb(6, 8, 45); fill-rule: evenodd;"/><path class="cls-9" d="M214.4,297.06c-9.68,0-19.41-2.69-27.03-8.06l-.26-.22-95.39-95.4c-16.73-18.5-16.71-36.13.07-53.9l98.97-98.97.09-.07c12.75-10.1,35.9-13.55,53.67-.06l.2.18,95.43,95.43.07.09c14.58,18.22,14.59,36.33.02,53.82l-.12.14-98.96,98.96-.13.1c-7.42,5.31-17,7.97-26.62,7.97M189.81,285.83c13.86,9.66,35.2,9.71,48.75.1l98.66-98.66c13.29-16,13.27-31.91-.06-48.61l-95.17-95.17c-15.53-11.71-36.84-9.2-48.57.02l-98.77,98.77c-15.44,16.35-15.45,31.29,0,48.39l95.16,95.17Z" style="fill: rgb(0, 188, 241);"/><path class="cls-2" d="M152.89,182.37l-.03-.38c-1.18-.39-2.07-.78-2.22-2.17-.14-1.34-.03-28.34-.02-30.21.43.25,2.44,2.38,2.66,2.79.38.18,3.1,3.07,3.62,3.62,2.8,2.98,6.12,6.24,8.81,9.14l12.32,12.81c.57.56,1.24,1.2,1.6,1.99.68,1.47-1.02,1.9-1.35,2.09v1.13s15.33.03,15.33.03v-1.17c-1.65-1.11-2.26.06-2.26-4.19v-38.59c0-3.42.1-3.08,2.27-4.09l-.02-1.17h-11.71s-2.53.01-2.53.01v1.18c.99.35,1.83.62,2.13,1.63.24.8.14,2.7.14,3.64,0,7.29-.18,15.67,0,22.71l-.04,3.67-7.5-7.79c-.61-.54-1.3-1.37-1.88-2.01-.31-.34-.64-.59-.96-.94l-6.6-6.86c-.64-.66-1.17-1.33-1.82-1.98l-5.69-5.88c-.99-1.07-3.19-3.09-3.46-4.13-.35-1.37.59-1.68,1.47-2.1v-1.16s-14.02,0-14.02,0h-2.53s-.01,1.22-.01,1.22c2.33.48,2.27,1.78,2.27,4.25v38.39c0,.96.14,2.14-.31,2.92-.56.97-1.18.74-1.95,1.27v1.14s14.27-.03,14.27-.03v-.78Z" style="fill: rgb(255, 255, 255); fill-rule: evenodd;"/><path class="cls-2" d="M229,149.22c.4.59,6.01,13.24,6.03,13.51.27.21.5.78.53,1.12l-15.69-.04,7.94-17.18c.36.41,1.01,1.99,1.19,2.59M198.93,183.16h16.17s0-1.12,0-1.12c-.58-.33-2.26-.59-2.38-2.09-.1-1.29,1.94-5.13,2.57-6.43,1.7-3.48.74-2.94,3.66-2.94h19.74s2.92,6.03,2.92,6.03c.69,1.43,2.4,4.28-.4,5.18-.94.3-.78-.08-.78,1.39l17.99.02v-1.15c-.47-.26-1.11-.33-1.64-.65-1.3-.8-2.15-2.55-2.84-3.94l-14.93-30.45c-1-2.05-1.98-4.04-2.98-6.09-.46-.95-1.2-2.14-1.27-3.33-.1-1.53.93-1.94,2.1-2.38l-.02-1.18h-14.74s-2.54.02-2.54.02v1.13c.99.57,2.05.86,2.06,2.41,0,1.12-.68,2.55-1.1,3.41-2.9,6.01-5.76,12.32-8.67,18.25-.99,2.02-1.89,4.09-2.89,6.08-1.89,3.76-3.88,8.38-5.78,12.17-.54,1.09-.9,1.98-1.56,2.93-.88,1.27-1.72,1.24-2.37,1.52-.32.14-.26-.17-.33,1.25" style="fill: rgb(255, 255, 255); fill-rule: evenodd;"/><path class="cls-2" d="M276.58,134.26c-1.64.69-2.48.66-5.09,1.9-4.56,2.17-8.3,5.79-10.8,10.34-3.7,6.76-3.85,15.79-.56,22.96,2.77,6.03,8.07,10.75,15.21,13.01,5.5,1.74,13.04,2.06,18.92.89.98-.19,1.84-.42,2.78-.72.57-.18,2.17-.84,2.58-.86.1-.1.05-.06.18-.15l1.3-.61c2.71-1.27,4.28-2.2,6.84-3.63.49-.27,2.51-1.55,3.01-.89.49.05.76.44,1.15.72l.9-.68-.49-.86c-.34-.31-4.89-7.2-5.05-7.51l-1.27-1.8c-.39.18-.53.39-.94.56.15,2.6-.74,3.22-3.25,4.73-.79.48-4.43,2.48-5.36,2.45-.48.43-3.12.99-3.66,1.1-1.37.27-2.81.43-4.25.49-7.77.27-15.17-2.56-18.53-9.64-2.18-4.6-2.14-10.88.19-15.32,2.01-3.83,6.18-7.46,10.38-8.34,4.71-1.4,10.26-1.18,14.95.26,2.17.66,4.13,1.59,5.93,2.64.84.49,1.94,1.15,2.54,1.75.97.97,1.18,1.28,1.03,3.13l.99.64,1.59-2.28,5.16-7.98c-.28-.28-.56-.44-.89-.61-.47.29-1.04,1.04-1.93.84-1.56-.34-7.77-4.62-13.39-6.36-4.47-1.38-10.58-1.6-15.39-1.03-1.7.2-3.23.62-4.8.85" style="fill: rgb(255, 255, 255); fill-rule: evenodd;"/><path class="cls-2" d="M129.86,183.16v-1.12c-1.63-1.06-2.25.03-2.25-4.09v-38.59c0-2.65-.14-3.45,2.27-4.17v-1.19s-12.67-.01-12.67-.01l-2.55.02v1.14c2.27,1.06,2.26.82,2.26,4.2v38.49c0,.94.11,2.16-.29,2.91-.4.75-1.22.81-1.97,1.28v1.14s15.2-.02,15.2-.02Z" style="fill: rgb(255, 255, 255); fill-rule: evenodd;"/><path class="cls-4" d="M222.11,134h14.74s.02,1.19.02,1.19c-1.17.45-2.2.85-2.1,2.38.07,1.2.81,2.38,1.27,3.33,1,2.05,1.98,4.04,2.98,6.09l14.93,30.45c.68,1.4,1.54,3.15,2.84,3.94.53.33,1.18.39,1.64.65v1.15c.19-.31.1-.36.13-.83l2.52-.05c.23-3.09-1.28,1.01-4.53-5.77l-13.44-27.44c-.48-1.02-1.01-1.99-1.48-3-.76-1.65-4.11-7.78-4.21-9.33-.1-1.45.84-2.12,2.1-2.36l-.03-1.32h-17.36s-.02.91-.02.91Z" style="fill: rgb(146, 148, 151); fill-rule: evenodd;"/><path class="cls-4" d="M117.21,134h12.67s0,1.2,0,1.2c-2.41.72-2.27,1.52-2.27,4.17v38.59c0,4.12.62,3.03,2.26,4.09v1.12c.13-.25.08-.47.1-.8h2.55s-.02-1.22-.02-1.22c-1.7-1.13-2.24.17-2.24-4.29v-38.29c0-.94-.11-2.19.27-2.95.31-.6,1.07-1.12,1.99-1.22v-1.32s-15.3,0-15.3,0v.92Z" style="fill: rgb(146, 148, 151); fill-rule: evenodd;"/><path class="cls-4" d="M181.89,133.99h11.71s.02,1.18.02,1.18c-2.17,1.01-2.27.67-2.27,4.09v38.59c0,4.25.61,3.08,2.26,4.19v1.17c.06-.09.06-.06.12-.27l.05-.57,2.49-.05v-1.2c-2.33-1.01-2.27-.87-2.27-4.16v-38.49c0-2.6-.17-3.39,2.28-4.1l-.03-1.28h-14.35s-.01.91-.01.91Z" style="fill: rgb(146, 148, 151); fill-rule: evenodd;"/><path class="cls-4" d="M141.16,134h14s.01,1.16.01,1.16c-.88.43-1.81.73-1.47,2.11.26,1.04,2.47,3.05,3.46,4.13l5.69,5.88c.65.65,1.18,1.32,1.82,1.98l6.6,6.86c.31.35.64.6.96.94.58.63,1.27,1.47,1.88,2.01l7.49,7.79.04-3.68c-.43-.16-.68-.55-.93-.84l-1.25-1.35c-.25-.22-.28-.2-.48-.42-2.41-2.53-5.23-5.64-7.64-8.01-.33-.32-.54-.61-.85-.95-.29-.31-.59-.5-.87-.82-.46-.53-1.13-1.32-1.63-1.77-.68-.61-1.17-1.12-1.71-1.78l-6.83-7.13c-.54-.6-1.2-1.13-1.74-1.75-.37-.42-1.25-1.29-1.39-2.1-.19-1.12.56-1.73,1.49-1.87v-1.31s-16.64.02-16.64.02v.9Z" style="fill: rgb(146, 148, 151); fill-rule: evenodd;"/><path class="cls-4" d="M296.65,174.12c-1.15,0-3.23.93-7.8.64-4.03-.25-8.06-1.25-11.17-3.7-1.14-.9-1.26-1.09-2.25-2.04-.28-.26-.66-.79-.94-1.15-3.48-4.36-4.15-11.62-2.01-16.76,1.54-3.71,4.21-6.52,7.67-8.27.27-.14.47-.2.63-.45-4.2.88-8.37,4.51-10.38,8.34-2.33,4.45-2.37,10.73-.19,15.33,3.36,7.08,10.76,9.91,18.53,9.64,1.44-.05,2.88-.21,4.25-.48.54-.11,3.17-.67,3.66-1.1" style="fill: rgb(146, 148, 151); fill-rule: evenodd;"/><path class="cls-4" d="M152.89,182.37h2.64s-.02-1.23-.02-1.23c-.71-.51-1.83-.35-2.16-1.82-.2-.9-.09-2.74-.09-3.76,0-1.95-.08-22.26.03-23.16-.22-.4-2.23-2.54-2.66-2.79,0,1.87-.12,28.87.02,30.21.14,1.39,1.04,1.78,2.22,2.17l.03.38Z" style="fill: rgb(146, 148, 151); fill-rule: evenodd;"/><path class="cls-4" d="M276.58,134.26c1.57-.23,3.1-.65,4.8-.85,4.81-.57,10.92-.36,15.39,1.03,5.61,1.74,11.83,6.01,13.39,6.36.89.19,1.46-.55,1.93-.84.33.17.61.34.89.61l-5.16,7.98v.82c.37.17.57.42.98.62l.25-.3c.1-.14.12-.2.19-.3.2-.28.28-.41.44-.65.3-.45.52-.82.84-1.26,1.74-2.46,3.31-5.17,5.15-7.71v-.08c-.33-.2-.62-.46-1-.64-.52.29-1.04,1.11-1.99.82-2.4-.71-7.86-4.94-14.64-6.71-5.35-1.4-13.45-1.22-19.09.29-.42.11-2.05.52-2.37.82" style="fill: rgb(146, 148, 151); fill-rule: evenodd;"/><path class="cls-4" d="M235.04,162.73l-.05.21h-12.4c0-.21,2.79-6.28,3.1-6.95l2.83-6.14c.05-.1.15-.33.2-.41.23-.38,0-.22.27-.22-.19-.6-.83-2.18-1.19-2.59l-7.93,17.18,15.69.04c-.03-.35-.26-.92-.53-1.12" style="fill: rgb(146, 148, 151); fill-rule: evenodd;"/><path class="cls-4" d="M198.93,183.16c.28.23.67.16,1.05.16,2.94-.04,13.78.12,15.25-.04v-.92s2.51-.01,2.51-.01c0-1.41.16-1.18-.73-1.5-2.43-.86-1.74-2.77-.75-4.67.92-1.78,1.74-3.91,2.69-5.61-2.93,0-1.97-.54-3.66,2.94-.64,1.3-2.67,5.15-2.57,6.43.12,1.51,1.81,1.76,2.38,2.09v1.12s-16.17,0-16.17,0Z" style="fill: rgb(146, 148, 151); fill-rule: evenodd;"/><path class="cls-4" d="M307.47,168.17c.16.31,4.7,7.2,5.05,7.51.83-.64,1.74.45,2.16.69.42-.19.64-.41,1-.64v-.06c-.41-.42-1.31-1.93-1.69-2.5-.57-.85-1.13-1.7-1.71-2.58-.26-.4-3.06-4.77-3.48-5.14-.74.48-.99.48-.97,1.06.02.37.07.55.01.94-.11.75-.25.66-.37.72" style="fill: rgb(146, 148, 151); fill-rule: evenodd;"/><path class="cls-1" d="M122.5,190.22c.16.44.25.07.28.79l-.03,3.15-2.74-2.84c-.43-.44-.72-.47-.48-1.1h-2.01c.19.5.27.13.27.9v4.09c0,.94-.05.44-.27.99h1.72c-.12-.29-.25-.39-.25-.79v-3.21s3.36,3.36,3.36,3.36c.25.32.17.28.03.63h1.85c-.41-.91-.25-1.59-.25-2.98s-.15-2.02.24-2.99h-1.72Z" style="fill: rgb(0, 164, 79); fill-rule: evenodd;"/><path class="cls-1" d="M300.83,194.11c-.44-.26-1.38-1.45-1.9-1.91-.37-.33-.61-.6-.94-.95-.52-.56-.55-.38-.37-1.04h-2.02c.19.4.26.32.26.89v4.39c0,.36-.14.43-.26.69h1.73c-.17-.41-.26-.14-.26-.69l.02-3.33,2.86,2.9c.46.5.71.48.52,1.12h1.85c-.17-.4-.26-.16-.26-.69v-4.59c0-.4.13-.4.27-.7h-1.74c.12.26.26.34.26.7l-.02,3.2Z" style="fill: rgb(0, 164, 79); fill-rule: evenodd;"/><path class="cls-1" d="M226.41,192.77h-1.76s-.02-1.55-.02-1.55c1.54-.05,3.42-.32,3.28.88-.09.72-.79.67-1.5.67M223.05,190.23c.28.37.27.78.27,1.38v3.29c0,.2.02.61-.01.79-.11.55-.09.05-.26.5h1.86c-.22-.54-.28-.07-.27-1.09,0-.44-.03-.9.04-1.34,1.84-.07,1.28-.28,2.62,1.56.53.73.25.6.12.87h2.14c-.15-.26-.3-.16-1.02-1.21-.29-.43-.6-.83-.87-1.24.83-.24,1.41-.47,1.55-1.34.16-.94-.22-1.65-.84-1.95-.73-.35-4.32-.3-5.32-.22" style="fill: rgb(0, 164, 79); fill-rule: evenodd;"/><path class="cls-1" d="M175.39,194.14c-.44-.27-1.33-1.43-1.87-1.89-.36-.31-.61-.6-.94-.96-.74-.8-.58-.58-.42-1.08h-2.01c.14.33.25.33.25.8v4.49c0,.36-.14.43-.25.69h1.73c-.17-.4-.27-.24-.27-.79l.02-3.23,2.87,2.89c.43.46.73.51.52,1.13h1.85c-.19-.47-.27-.12-.27-.79v-4.39c0-.44.14-.47.27-.8h-1.72c.18.45.26.27.26.9v3.03Z" style="fill: rgb(0, 164, 79); fill-rule: evenodd;"/><path class="cls-1" d="M241.41,195.18v-3.95c1.96-.18,3.65-.18,3.64,1.97,0,2.15-1.67,2.16-3.64,1.98M239.83,190.21l.17.28c.11.24.05,0,.09.32v4.79c-.05.44-.08.23-.25.59,3.09,0,6.57.67,6.56-2.99,0-3.68-3.47-3-6.56-2.99" style="fill: rgb(0, 164, 79); fill-rule: evenodd;"/><path class="cls-1" d="M282.8,195.18v-3.95c1.94-.2,3.64-.16,3.64,1.97,0,2.15-1.67,2.17-3.64,1.98M281.22,190.21l.13.21s.03.05.04.07c.17.38.17,5.06,0,5.44-.09.19,0-.09-.16.27,3.09,0,6.57.68,6.56-2.99,0-3.67-3.44-3-6.56-2.99" style="fill: rgb(0, 164, 79); fill-rule: evenodd;"/><path class="cls-1" d="M268.41,195.19v-3.97c1.96-.09,3.64-.27,3.64,1.99,0,2.22-1.61,2.08-3.64,1.99M266.81,190.22c.19.5.27.02.27.89v4.29c0,.72-.09.36-.26.78,1.08.05,3,.09,4.02-.01,1.23-.12,1.99-.71,2.34-1.68.39-1.07.22-2.46-.35-3.23-.67-.91-1.52-1.05-2.94-1.05h-3.09Z" style="fill: rgb(0, 164, 79); fill-rule: evenodd;"/><path class="cls-1" d="M163.02,191.2c2.92-.65,3.52,3.55,1.01,4.03-2.91.56-3.59-3.46-1.01-4.03M160.09,193.5c.3,3.91,7.16,3.8,6.86-.58-.27-3.94-7.19-3.82-6.86.58" style="fill: rgb(0, 164, 79); fill-rule: evenodd;"/><path class="cls-1" d="M180.68,191.2c2.88-.69,3.51,3.37,1.16,4-2.92.78-3.84-3.36-1.16-4M177.78,193.6c.42,3.88,7.3,3.6,6.84-.77-.42-3.92-7.31-3.64-6.84.77" style="fill: rgb(0, 164, 79); fill-rule: evenodd;"/><path class="cls-1" d="M218.16,191.19c2.8-.68,3.61,3.39,1.09,4.02-2.87.71-3.78-3.37-1.09-4.02M222.04,193.9c.95-4.26-5.8-5.27-6.73-1.43-.5,2.06.95,3.56,2.67,3.79,2.11.29,3.68-.66,4.06-2.36" style="fill: rgb(0, 164, 79); fill-rule: evenodd;"/><path class="cls-1" d="M248.97,195.21c-.19-.31-.13-1.28-.06-1.65.39-.1.83-.05,1.24-.05.48,0,1.06-.08,1.29.12l.35.21v-1.5s-.06.04-.08.05l-.24.13c-.44.19-2.04.09-2.56.09v-1.4s4.01.16,4.01.16l.16-1.43-5.75.26c.28.74.26.43.25,1.4,0,.53,0,1.06,0,1.6,0,1.48.16,2.01-.26,2.99h4.51c.58,0,.74-.07,1.11.12l.24.15v-1.53s-.06.04-.08.05c-.71.42-2.83.18-4.14.22" style="fill: rgb(0, 164, 79); fill-rule: evenodd;"/><path class="cls-1" d="M213.15,191.99c.29-.23.7-1.01.69-1.44-.72.21-2.31-.93-4.32-.18-1.23.46-2.12,1.49-1.95,3.24.14,1.43,1.2,2.37,2.57,2.62,1.82.33,2.82-.27,4.18-.86-.04-.2-.13-.15-.2-.41-.24-.88.08-1.42.23-1.74-.6-.02-1.2-.01-1.8-.01-1.75,0-.97-.06-1.48-.28v1.37c.41-.14.27-.26.88-.27.34,0,.7-.01,1.05.04v.76c-1.62,1.05-4.35.35-4.1-1.89.23-2,3.25-2.43,4.25-.95" style="fill: rgb(0, 164, 79); fill-rule: evenodd;"/><path class="cls-1" d="M130.85,190.72c-1.03-.02-1.63-.63-2.97-.62-1.13,0-2.09.43-2.4,1.2-.44,1.1.18,2.03,1.12,2.3.85.24,2.38.04,2.9.59.37.93-.92,1.15-1.79,1.06-.9-.09-1.35-.29-1.8-.87-.14-.19,0-.03-.15-.17l-.6,1.39.3.07c.16.04.19.04.34.11.23.1.4.19.64.27,1.32.46,3.6.41,4.24-.93.52-1.08-.15-2.06-1.06-2.37-.92-.31-2.39-.12-3.02-.64-.09-.93.84-1.06,1.75-.96,1.2.13,1.46.65,1.81.95l.68-1.38Z" style="fill: rgb(0, 164, 79); fill-rule: evenodd;"/><path class="cls-1" d="M146.83,190.22c.19.48.27.07.28.88.02,3.38-.68,5.21,3.01,5.19,3.74-.02,2.79-2.15,2.89-5.29.02-.74.11-.36.28-.79l-1.75.02c.22.49.26-.17.26,1.07,0,2.11.34,3.6-.98,3.9-.67.15-1.68.07-2.09-.32-.46-.43-.32-1.55-.32-2.28,0-1.43-.16-1.57.26-2.4h-1.84Z" style="fill: rgb(0, 164, 79); fill-rule: evenodd;"/><path class="cls-1" d="M233.33,191.82l.88,2.01-1.85-.02.98-1.99ZM232.3,190.22c.42.59,0,1.08-.26,1.63l-2.25,4.34h1.94c-.15-.32-.31-.4-.15-.8.1-.25.29-.55.42-.73l2.59.02c.16.2.31.46.41.72.18.46.04.43-.14.8h2.16c-.17-.36-.03-.06-.28-.36-.12-.15-.14-.17-.24-.35l-1.85-3.73c-.59-1.19-.54-.84-.26-1.54h-2.1Z" style="fill: rgb(0, 164, 79); fill-rule: evenodd;"/><path class="cls-1" d="M291.36,191.83l.87,2h-1.86s.99-2,.99-2ZM290.33,190.22s.07.1.08.13c.14.27.21.31,0,.74l-1.78,3.71c-.51,1.09-.73,1.2-.82,1.4h1.94c-.48-1.11-.18-.2.17-1.53l2.71.04c.72,1.09.44,1.11.26,1.5h2.16c-.11-.24-.31-.23-.88-1.43l-1.51-3.08c-.72-1.47-.48-.84-.24-1.47h-2.09Z" style="fill: rgb(0, 164, 79); fill-rule: evenodd;"/><path class="cls-1" d="M203.9,191.83l.88,2h-1.86s.97-2,.97-2ZM202.88,190.22s.18.36.18.42c.05.38-1.63,3.65-1.88,4.17-.51,1.08-.7,1.11-.83,1.38h1.95c-.13-.29-.51-.51.28-1.53l2.59.03c.77.97.41,1.21.26,1.5h2.17c-.15-.31-.35-.38-.53-.7l-1.85-3.73c-.63-1.3-.56-.86-.25-1.54h-2.1Z" style="fill: rgb(0, 164, 79); fill-rule: evenodd;"/><path class="cls-1" d="M309.37,191.81l.89,2.02-1.85-.03.96-1.99ZM308.36,190.21s.07.12.08.14c.25.51.04.64-.34,1.46l-1.46,3.03c-.12.24-.23.51-.35.74-.2.36-.34.33-.45.6h1.96c-.25-.53-.54-.08.2-1.52h2.73c.1.32.27.56.37.84.21.6,0,.29-.19.69h2.19c-.17-.33-.26-.16-.52-.68l-1.13-2.26c-.26-.53-.5-1.02-.75-1.54-.11-.23-.28-.5-.37-.74-.19-.46,0-.49.12-.76h-2.07Z" style="fill: rgb(0, 164, 79); fill-rule: evenodd;"/><path class="cls-1" d="M276.96,191.81l.89,2-.37.02h-1s-.49-.04-.49-.04l.96-1.98ZM275.94,190.21l.19.43c.05.33-1.97,4.37-2.27,4.94-.21.4-.33.35-.46.61h1.96c-.28-.68-.51.03.21-1.53h2.72c.1.32.29.57.38.84.2.57,0,.3-.19.68h2.19c-.15-.31-.26-.18-.52-.67-.14-.26-.24-.49-.36-.74-.25-.51-.5-1.02-.76-1.54-.26-.52-.52-1.02-.77-1.52-.61-1.27-.53-.88-.25-1.5h-2.08Z" style="fill: rgb(0, 164, 79); fill-rule: evenodd;"/><path class="cls-1" d="M194.31,191.8c.29.35.78,1.47.94,2.03h-.55s-.9,0-.9,0l-.4-.04.9-2ZM193.36,190.21s.07.12.08.15l.11.28c.05.34-1,2.3-1.17,2.64-.25.52-.48,1.03-.73,1.56-.53,1.12-.73,1.15-.82,1.35l1.96-.02c-.23-.49-.55-.04.22-1.51h2.71c.11.36.27.55.38.85.19.53-.02.31-.2.68h2.19c-.16-.33-.25-.15-.52-.67l-1.89-3.8c-.54-1.11-.56-.83-.25-1.51h-2.08Z" style="fill: rgb(0, 164, 79); fill-rule: evenodd;"/><path class="cls-1" d="M262.12,194.19c-.55.96-1.68,1.2-2.74,1.05-3.09-.44-2.07-5.27,1.71-3.89.81.3.78.4,1.04.86.28-.23.78-.92.78-1.26-.46.16-1.28-.49-1.85-.67-.75-.24-1.65-.23-2.42-.06-3.24.71-3.25,5.25.01,5.97,2.14.47,2.82-.37,4.06-.8.57-.2-.22.22.23-.09l-.81-1.11Z" style="fill: rgb(0, 164, 79); fill-rule: evenodd;"/><path class="cls-1" d="M184.64,190.22c.15.28.27.2.5.68l2.09,4.5c.18.47.05.42-.13.79h2.03c-.15-.34-.32-.31-.15-.73l2.12-4.57c.2-.41.3-.36.46-.68h-2c.31.65.34.36-.02,1.13-.4.85-.99,2.42-1.41,3.05-.29-.67-.62-1.36-.93-2.06-.85-1.93-.83-1.37-.46-2.12h-2.11Z" style="fill: rgb(0, 164, 79); fill-rule: evenodd;"/><path class="cls-1" d="M144.08,195.77l-.02-4.55c.43-.03.85-.02,1.28-.02.89,0,.46.03,1.01.28v-1.54c-.65.36-.48.27-1.41.27h-3.19c-.21,0-.61.02-.79-.01-.54-.09-.11-.06-.52-.26l.03,1.54c.46-.17.02-.28.98-.28.43,0,.86,0,1.28.02v3.98c.01.9-.03.47-.26.99l1.85-.02c-.16-.36-.12.02-.23-.4" style="fill: rgb(0, 164, 79); fill-rule: evenodd;"/><path class="cls-1" d="M135.34,196.17c-.23-.54-.28-.09-.27-1.07v-3.88c.44-.03.87-.02,1.3-.02.88,0,.46.02,1,.28l-.03-1.54c-.36.19.03.21-.58.27h-4.79c-.54-.1-.1-.04-.52-.28l.03,1.56c.48-.22.02-.29.99-.29.42,0,.85,0,1.28.02v3.98c.02.93-.03.47-.26.99h1.85Z" style="fill: rgb(0, 164, 79); fill-rule: evenodd;"/><path class="cls-1" d="M157.64,196.19c-.26-.54-.27-.21-.26-1.09v-3.89c1.3-.03,1.53-.13,2.31.24v-1.49c-.38.17-.06.07-.28.16-.45.19-3.63.08-4.31.09-.81,0-.69.09-1.34-.27v1.53c.63-.27.23-.28,1.14-.27.39,0,.78-.02,1.16.04v3.97c.01.9-.02.44-.25.98h1.83Z" style="fill: rgb(0, 164, 79); fill-rule: evenodd;"/><path class="cls-1" d="M114.59,190.21c.41.58.26,2.16.26,3,0,1.51.16,1.97-.26,2.99h1.83c-.18-.43-.18-.02-.25-.59v-3.99c0-.21-.02-.61,0-.8.07-.58.07-.17.25-.6h-1.83Z" style="fill: rgb(0, 164, 79); fill-rule: evenodd;"/><path class="cls-1" d="M263.89,190.22c.35.45.26.75.26,1.39v3.19c0,.94.06.66-.25,1.39h1.83c-.15-.37-.22-.16-.26-.6v-4.08c0-1.02-.01-.6.26-1.3h-1.84Z" style="fill: rgb(0, 164, 79); fill-rule: evenodd;"/><path class="cls-1" d="M139.56,191.01c0-.78.09-.35.27-.8l-1.86.02c.16.36.27.13.28.68v4.59c0,.54-.12.33-.28.68h1.86c-.16-.36-.27-.16-.27-.68v-4.49Z" style="fill: rgb(0, 164, 79); fill-rule: evenodd;"/><path class="cls-1" d="M303.4,190.22c.48.61.25,3.37.26,4.69,0,1.37-.06.79-.26,1.29h1.84c-.21-.43-.19-.04-.26-.59v-3.99c-.01-1.46.01-.87.26-1.4h-1.84Z" style="fill: rgb(0, 164, 79); fill-rule: evenodd;"/><path class="cls-3" d="M299.62,181.79c1.17-.11,4.83-1.92,5.93-2.48.97-.5,1.81-.94,2.73-1.46.55-.31,2.13-1.32,2.67-1.34-.5-.66-2.53.62-3.01.89-2.56,1.43-4.13,2.36-6.84,3.63l-1.3.6c-.13.09-.09.05-.18.15" style="fill: rgb(206, 208, 209); fill-rule: evenodd;"/><path class="cls-1" d="M204.07,188.46c-.44.49,0,.44-.66,1.24,1.55.04.53.12,1.16-.58l.54-.65h-1.04Z" style="fill: rgb(0, 164, 79); fill-rule: evenodd;"/><path class="cls-6" d="M248.97,195.21v-1.62s2.47.04,2.47.04c-.23-.21-.81-.12-1.29-.12-.41,0-.85-.04-1.24.05-.07.37-.13,1.34.06,1.65" style="fill: rgb(118, 179, 149); fill-rule: evenodd;"/></g></g></g></g></svg>